<?xml version="1.0" standalone="no"?><!DOCTYPE svg PUBLIC "-//W3C//DTD SVG 1.1//EN" "http://www.w3.org/Graphics/SVG/1.1/DTD/svg11.dtd"><svg t="1772209305341" class="icon" viewBox="0 0 1024 1024" version="1.1" xmlns="http://www.w3.org/2000/svg" p-id="1584" width="64" height="64" xmlns:xlink="http://www.w3.org/1999/xlink"><path d="M860.253405 512.000461a431.238022 431.238022 0 0 0-139.308875-316.862415A40.958141 40.958141 0 1 0 665.702238 255.448908a348.144194 348.144194 0 0 1-202.691598 603.108619l30.718605-30.718605a41.019578 41.019578 0 0 0-57.904571-58.109362l-81.301909 81.301909a56.317443 56.317443 0 0 0 0 79.663583l81.301909 81.301909a40.97862 40.97862 0 0 0 57.955769-57.955769l-14.847326-14.796128A430.674847 430.674847 0 0 0 860.253405 512.000461zM350.01737 254.271362a40.958141 40.958141 0 0 0 57.955768 0l81.301909-81.301909a56.317443 56.317443 0 0 0 0-79.663583L407.973138 12.003961a40.97862 40.97862 0 0 0-57.955768 57.955768l16.74164 16.690443a430.060475 430.060475 0 0 0-227.31768 742.366296A40.958141 40.958141 0 0 0 194.683622 768.552013 348.144194 348.144194 0 0 1 378.688068 167.696092l-28.670698 28.619501a40.958141 40.958141 0 0 0 0 57.955769z" fill="#231815" p-id="1585"></path></svg>
