<?xml version="1.0" standalone="no"?><!DOCTYPE svg PUBLIC "-//W3C//DTD SVG 1.1//EN" "http://www.w3.org/Graphics/SVG/1.1/DTD/svg11.dtd"><svg t="1772188606613" class="icon" viewBox="0 0 1024 1024" version="1.1" xmlns="http://www.w3.org/2000/svg" p-id="1663" width="64" height="64" xmlns:xlink="http://www.w3.org/1999/xlink"><path d="M240.128 829.909333l21.461333-12.288a395.093333 395.093333 0 0 0 640.298667-369.706666l21.461333-12.373334a418.304 418.304 0 0 1-683.264 394.368h0.042667zM100.693333 588.458667a418.304 418.304 0 0 1 683.221334-394.368l-21.504 12.373333a395.093333 395.093333 0 0 0-640.298667 369.664l-21.461333 12.373333 0.042666-0.042666z m55.04 290.261333l42.026667-24.277333A463.104 463.104 0 0 0 512 976.810667c256.725333 0 464.810667-208.085333 464.810667-464.810667 0-34.688-3.84-68.48-11.050667-100.992l42.069333-24.277333c10.112 40.106667 15.445333 82.048 15.445334 125.269333 0 282.368-228.906667 511.274667-511.274667 511.274667-138.496 0-264.192-55.04-356.266667-144.554667z m-139.562666-241.493333A512.341333 512.341333 0 0 1 0.725333 512C0.725333 229.632 229.632 0.725333 512 0.725333c138.496 0 264.192 55.04 356.266667 144.554667l-42.026667 24.277333A463.104 463.104 0 0 0 512 47.189333C255.274667 47.189333 47.189333 255.274667 47.189333 512c0 34.688 3.84 68.48 11.050667 100.992l-42.069333 24.277333zM915.626667 339.328l-27.605334 50.645333a9.301333 9.301333 0 0 1-17.066666-1.749333l-16.426667-55.296-56.746667-10.624a9.301333 9.301333 0 0 1-3.541333-16.768l47.488-32.725333-7.424-57.173334a9.301333 9.301333 0 0 1 14.848-8.618666l45.781333 34.986666 52.053334-24.704a9.301333 9.301333 0 0 1 12.8 11.52l-19.157334 54.357334 39.68 41.941333a9.301333 9.301333 0 0 1-6.997333 15.658667l-57.685333-1.408v-0.042667zM150.826667 780.8l-27.562667 50.645333a9.301333 9.301333 0 0 1-17.109333-1.749333l-16.469334-55.296-56.704-10.624a9.301333 9.301333 0 0 1-3.584-16.768l47.488-32.725333-7.424-57.216a9.301333 9.301333 0 0 1 14.890667-8.618667l45.781333 35.072 52.096-24.746667a9.301333 9.301333 0 0 1 12.8 11.52l-19.2 54.357334 39.637334 41.941333a9.301333 9.301333 0 0 1-6.997334 15.658667l-57.6-1.408-0.042666-0.042667z m163.797333-286.762667l25.344-14.634666 25.856 44.714666 92.074667-53.162666 72.106666 124.928-24.576 14.208-8.533333-14.762667-67.456 38.997333 50.005333 86.613334-25.344 14.677333L404.053333 648.96l-67.242666 38.826667 8.533333 14.72-24.576 14.208-72.106667-124.928 91.776-53.034667-25.813333-44.714667z m8.32 169.685334l67.242667-38.826667-35.84-62.08-67.242667 38.826667 35.84 62.08z m92.586667-53.461334l67.498666-38.954666-35.84-62.08-67.498666 38.954666 35.84 62.08z m140.074666-65.024l100.864-58.24a154.026667 154.026667 0 0 0-9.301333-19.114666l23.808-13.738667c3.84 6.741333 6.826667 13.013333 9.557333 18.986667l100.608-58.112 13.909334 24.064-93.866667 54.186666c31.573333 14.208 74.24 11.648 127.701333-7.509333l3.072 28.586667c-63.061333 19.84-110.165333 19.456-141.653333-0.981334-0.896 38.442667-25.941333 80.469333-74.538667 126.506667l-23.253333-16.938667c44.970667-39.765333 68.138667-75.52 69.546667-107.093333l-92.586667 53.461333-13.866667-24.064z m-13.568-179.413333l24.832-14.336 69.546667 120.533333-24.789333 14.336-18.517334-32.085333c-12.501333 18.986667-28.458667 38.528-47.061333 58.88l-22.954667-17.066667c22.442667-22.613333 41.045333-44.757333 55.808-66.389333l-36.864-63.872z m-46.08 39.04c19.669333-1.706667 38.997333-0.469333 57.984 3.072l-1.408 28.032a202.538667 202.538667 0 0 0-58.581333-4.096l1.962667-27.008z m122.88-84.053333l26.709334-11.648c0.896 6.4 1.28 13.056 1.28 19.626666l59.52-34.389333 11.946666 20.693333c11.178667 45.653333-8.576 93.269333-59.136 143.104l-24.32-14.592c15.872-14.976 28.501333-29.525333 38.058667-44.032-11.008-2.944-21.333333-5.248-30.890667-6.954666l9.472-22.4c11.221333 2.133333 22.272 5.12 33.152 8.448 7.68-16.512 10.88-32.469333 10.24-47.957334l-52.010666 29.994667a197.034667 197.034667 0 0 1-18.773334 47.445333l-26.368-11.008c16.426667-27.093333 23.466667-52.48 21.077334-76.330666z" fill="#FF9437" p-id="1664"></path></svg>
